<svg width="410" height="146" viewBox="0 0 410 146" fill="none" xmlns="http://www.w3.org/2000/svg">
<rect width="410" height="146" fill="white"/>
<g clip-path="url(#clip0_38_113)">
<path d="M130.033 83.6826H124.606L128.001 62.386H133.428L130.033 83.6826Z" fill="#00579F"/>
<path d="M149.708 62.9066C148.638 62.4757 146.94 61.9999 144.84 61.9999C139.48 61.9999 135.706 64.8997 135.683 69.0455C135.638 72.1043 138.385 73.8033 140.44 74.8232C142.54 75.8654 143.253 76.5456 143.253 77.4746C143.232 78.9013 141.557 79.5589 139.994 79.5589C137.827 79.5589 136.666 79.2199 134.902 78.4261L134.187 78.0858L133.427 82.8665C134.7 83.4549 137.046 83.977 139.48 83.9999C145.175 83.9999 148.883 81.1449 148.927 76.7269C148.949 74.3025 147.498 72.4449 144.371 70.927C142.473 69.9525 141.31 69.2955 141.31 68.2985C141.332 67.3921 142.293 66.4637 144.436 66.4637C146.201 66.4182 147.497 66.8486 148.479 67.2792L148.97 67.5053L149.708 62.9066Z" fill="#00579F"/>
<path d="M156.922 76.1379C157.369 74.9145 159.089 70.1793 159.089 70.1793C159.066 70.2248 159.535 68.9333 159.803 68.1404L160.182 69.9755C160.182 69.9755 161.21 75.0732 161.433 76.1379C160.585 76.1379 157.994 76.1379 156.922 76.1379ZM163.621 62.386H159.423C158.129 62.386 157.145 62.7708 156.587 64.153L148.525 83.6823H154.22C154.22 83.6823 155.157 81.0538 155.359 80.4877C155.984 80.4877 161.523 80.4877 162.327 80.4877C162.483 81.2353 162.975 83.6823 162.975 83.6823H168L163.621 62.386Z" fill="#00579F"/>
<path d="M120.073 62.386L114.757 76.9082L114.176 73.9629C113.194 70.5645 110.112 66.8721 106.673 65.0362L111.541 83.66H117.281L125.812 62.386H120.073Z" fill="#00579F"/>
<path d="M109.822 62.386H101.089L101 62.8163C107.812 64.5836 112.323 68.8436 114.176 73.9638L112.278 64.1762C111.966 62.816 111.005 62.4309 109.822 62.386Z" fill="#FAA61A"/>
</g>
<path d="M190.344 86.9386V85.0804C190.344 84.3696 189.923 83.9041 189.202 83.9041C188.841 83.9041 188.449 84.0268 188.179 84.4309C187.969 84.0918 187.667 83.9041 187.216 83.9041C186.914 83.9041 186.613 83.9979 186.375 84.3371V83.9655H185.744V86.9386H186.375V85.2969C186.375 84.7701 186.645 84.5211 187.065 84.5211C187.485 84.5211 187.695 84.799 187.695 85.2969V86.9386H188.326V85.2969C188.326 84.7701 188.627 84.5211 189.016 84.5211C189.436 84.5211 189.647 84.799 189.647 85.2969V86.9386H190.344ZM199.696 83.9655H198.673V83.067H198.043V83.9655H197.472V84.5536H198.043V85.9175C198.043 86.5995 198.312 87 199.034 87C199.304 87 199.605 86.9062 199.815 86.7835L199.633 86.2242C199.451 86.3469 199.241 86.3794 199.09 86.3794C198.789 86.3794 198.67 86.1917 198.67 85.885V84.5536H199.693V83.9655H199.696ZM205.048 83.9005C204.688 83.9005 204.446 84.0881 204.295 84.3335V83.9619H203.665V86.935H204.295V85.2608C204.295 84.7665 204.505 84.4851 204.898 84.4851C205.017 84.4851 205.167 84.5175 205.29 84.5464L205.472 83.9258C205.346 83.9005 205.167 83.9005 205.048 83.9005ZM196.96 84.2108C196.659 83.9943 196.239 83.9005 195.787 83.9005C195.065 83.9005 194.585 84.2722 194.585 84.8603C194.585 85.3546 194.946 85.6361 195.577 85.7263L195.878 85.7588C196.207 85.8201 196.389 85.9139 196.389 86.0691C196.389 86.2856 196.148 86.4407 195.727 86.4407C195.307 86.4407 194.974 86.2856 194.764 86.1304L194.463 86.6247C194.792 86.8737 195.244 86.9964 195.696 86.9964C196.537 86.9964 197.02 86.5923 197.02 86.0366C197.02 85.5098 196.628 85.232 196.029 85.1381L195.727 85.1057C195.458 85.0732 195.247 85.0119 195.247 84.8278C195.247 84.6113 195.458 84.4887 195.79 84.4887C196.151 84.4887 196.512 84.6438 196.694 84.7376L196.96 84.2108ZM213.735 83.9005C213.374 83.9005 213.133 84.0881 212.982 84.3335V83.9619H212.352V86.935H212.982V85.2608C212.982 84.7665 213.192 84.4851 213.585 84.4851C213.704 84.4851 213.854 84.5175 213.977 84.5464L214.159 83.933C214.037 83.9005 213.858 83.9005 213.735 83.9005ZM205.679 85.4521C205.679 86.3505 206.281 87 207.213 87C207.633 87 207.935 86.9062 208.236 86.6608L207.935 86.134C207.693 86.3216 207.455 86.4118 207.182 86.4118C206.67 86.4118 206.309 86.0402 206.309 85.4521C206.309 84.8928 206.67 84.5211 207.182 84.4923C207.451 84.4923 207.693 84.5861 207.935 84.7701L208.236 84.2433C207.935 83.9943 207.633 83.9041 207.213 83.9041C206.281 83.9005 205.679 84.5536 205.679 85.4521ZM211.511 85.4521V83.9655H210.88V84.3371C210.67 84.0593 210.369 83.9041 209.977 83.9041C209.164 83.9041 208.534 84.5536 208.534 85.4521C208.534 86.3505 209.164 87 209.977 87C210.397 87 210.698 86.8448 210.88 86.567V86.9386H211.511V85.4521ZM209.196 85.4521C209.196 84.9253 209.525 84.4923 210.068 84.4923C210.579 84.4923 210.94 84.8964 210.94 85.4521C210.94 85.9789 210.579 86.4118 210.068 86.4118C209.528 86.3794 209.196 85.9753 209.196 85.4521ZM201.651 83.9005C200.81 83.9005 200.207 84.5211 200.207 85.4485C200.207 86.3794 200.81 86.9964 201.682 86.9964C202.102 86.9964 202.523 86.8737 202.856 86.5923L202.554 86.1268C202.313 86.3144 202.011 86.4371 201.714 86.4371C201.321 86.4371 200.933 86.2495 200.841 85.7263H202.975C202.975 85.6325 202.975 85.5711 202.975 85.4773C203.003 84.5211 202.46 83.9005 201.651 83.9005ZM201.651 84.4598C202.043 84.4598 202.313 84.7088 202.372 85.1706H200.869C200.929 84.7701 201.199 84.4598 201.651 84.4598ZM217.315 85.4521V82.7892H216.685V84.3371C216.474 84.0593 216.173 83.9041 215.781 83.9041C214.968 83.9041 214.338 84.5536 214.338 85.4521C214.338 86.3505 214.968 87 215.781 87C216.201 87 216.502 86.8448 216.685 86.567V86.9386H217.315V85.4521ZM215 85.4521C215 84.9253 215.329 84.4923 215.872 84.4923C216.383 84.4923 216.744 84.8964 216.744 85.4521C216.744 85.9789 216.383 86.4118 215.872 86.4118C215.329 86.3794 215 85.9753 215 85.4521ZM193.892 85.4521V83.9655H193.261V84.3371C193.051 84.0593 192.75 83.9041 192.358 83.9041C191.545 83.9041 190.915 84.5536 190.915 85.4521C190.915 86.3505 191.545 87 192.358 87C192.778 87 193.079 86.8448 193.261 86.567V86.9386H193.892V85.4521ZM191.549 85.4521C191.549 84.9253 191.878 84.4923 192.421 84.4923C192.932 84.4923 193.293 84.8964 193.293 85.4521C193.293 85.9789 192.932 86.4118 192.421 86.4118C191.878 86.3794 191.549 85.9753 191.549 85.4521Z" fill="black"/>
<path d="M206.222 61.385H196.75V78.9139H206.222V61.385Z" fill="#FF5A00"/>
<path d="M197.381 70.1495C197.381 66.5881 199.006 63.4273 201.5 61.3851C199.665 59.8985 197.349 59 194.824 59C188.841 59 184 63.9866 184 70.1495C184 76.3124 188.841 81.299 194.824 81.299C197.349 81.299 199.665 80.4005 201.5 78.9139C199.003 76.9005 197.381 73.7108 197.381 70.1495Z" fill="#EB001B"/>
<path d="M219 70.1495C219 76.3124 214.159 81.299 208.176 81.299C205.651 81.299 203.335 80.4005 201.5 78.9139C204.026 76.868 205.619 73.7108 205.619 70.1495C205.619 66.5881 203.994 63.4273 201.5 61.3851C203.332 59.8985 205.647 59 208.173 59C214.159 59 219 64.0191 219 70.1495Z" fill="#F79E1B"/>
<path fill-rule="evenodd" clip-rule="evenodd" d="M246.916 64.3863C247.505 64.3829 249.258 64.2285 250 66.678C250.5 68.328 251.296 71.0308 252.389 74.7863H252.835C254.007 70.827 254.812 68.1242 255.25 66.678C256 64.203 257.875 64.3864 258.625 64.3864L264.411 64.3864V81.9863H258.514V71.6144H258.118L254.831 81.9863H250.393L247.106 71.6067H246.71V81.9863H240.812V64.3864L246.916 64.3863ZM272.88 64.3864V74.766H273.351L277.35 66.2309C278.126 64.5324 279.781 64.3864 279.781 64.3864H285.488V81.9864H279.467V71.6067H278.997L275.076 80.1418C274.3 81.8326 272.567 81.9864 272.567 81.9864H266.86V64.3864H272.88ZM306.299 72.75C305.459 75.077 302.822 76.7436 299.902 76.7436H293.587V81.9864H287.862V72.75H306.299Z" fill="#0F754E"/>
<path fill-rule="evenodd" clip-rule="evenodd" d="M300.178 64.3865H287.562C287.862 68.3048 291.313 71.6592 294.886 71.6592H306.697C307.378 68.4026 305.032 64.3865 300.178 64.3865Z" fill="url(#paint0_linear_38_113)"/>
<defs>
<linearGradient id="paint0_linear_38_113" x1="306.813" y1="68.9613" x2="287.562" y2="68.9613" gradientUnits="userSpaceOnUse">
<stop stop-color="#1F5CD7"/>
<stop offset="1" stop-color="#02AEFF"/>
</linearGradient>
<clipPath id="clip0_38_113">
<rect width="67" height="22" fill="white" transform="translate(101 62)"/>
</clipPath>
</defs>
</svg>
