<svg width="410" height="146" viewBox="0 0 410 146" fill="none" xmlns="http://www.w3.org/2000/svg">
<rect width="410" height="146" fill="white"/>
<path d="M168.867 71.5174L169.536 69.3769L167.323 69.4462C167.136 69.4462 165.777 69.4077 164.458 68.452C164.557 68.4617 164.655 68.4751 164.755 68.4751C166.112 68.4751 167.425 67.6582 167.952 66.4906L168.904 64.3809C167.711 64.3964 166.619 64.2461 166.619 64.2461C166.61 64.2441 165.75 64.1344 164.755 63.1189C164.042 62.3907 163.159 62.0052 162.203 62.0052C161.784 62.0052 161.41 62.0804 161.088 62.1825C161.138 62.0111 161.187 61.8376 161.214 61.6584C161.518 59.6836 160.246 58.1769 160.246 58.1789L158.582 56.1193L157.551 58.5391C157.547 58.5469 157.287 59.1134 156.82 59.3907C156.679 58.6798 156.334 57.8803 155.596 57.1153C154.204 55.6741 152.509 55.4602 151.622 55.4602C151.212 55.4602 150.919 55.5046 150.847 55.5161L148.839 55.9112C148.954 55.4623 149.201 54.6819 149.652 53.9786L150.761 52.2524L147.971 52.5703L147.082 50.684L145.363 51.5703L143.772 50L142.185 51.5703L140.46 50.684L139.573 52.5703L136.785 52.2524L137.896 53.9786C138.347 54.6819 138.594 55.4602 138.708 55.9092L136.791 55.5316L136.726 55.5201C136.629 55.5046 136.338 55.4602 135.926 55.4602C135.039 55.4602 133.344 55.676 131.956 57.1153C131.216 57.8784 130.871 58.6798 130.728 59.3907C130.265 59.1172 130.007 58.5584 130.007 58.5584L128.974 56.125L127.283 58.1982C127.076 58.4659 126.057 59.8821 126.334 61.6623C126.363 61.8396 126.409 62.013 126.46 62.1845C126.14 62.0824 125.766 62.0072 125.347 62.0072C124.391 62.0072 123.508 62.3926 122.793 63.1209C121.802 64.1324 120.946 64.2461 120.954 64.2461C120.954 64.2461 120.049 64.4079 118.65 64.3828L119.596 66.4926C120.123 67.6622 121.437 68.4771 122.793 68.4771C122.895 68.4771 122.993 68.4635 123.094 68.454C121.779 69.4096 120.42 69.4481 120.256 69.45L118 69.3769L118.682 71.5154C119.026 72.6176 120.173 74.4441 122.371 74.6406C122.131 75.6425 121.601 76.7639 120.437 77.2474L118.758 77.9391L119.673 79.5325C120.19 80.3918 121.403 81.3975 123.13 81.3975C123.504 81.3956 123.865 81.359 124.212 81.2858C124.3 81.6789 124.412 82.072 124.543 82.461C125.058 83.9908 124.615 85.0582 124.609 85.0698L123.78 86.8057L125.631 87.2933C125.654 87.3009 126.213 87.4531 126.913 87.4531C127.231 87.4531 127.533 87.4204 127.819 87.3531C128.035 87.3028 128.241 87.2355 128.44 87.1545C128.679 87.5841 128.97 87.9753 129.309 88.3259C130.495 89.5417 132.174 90.1582 134.302 90.1582H134.31L135.829 90.1389L132.69 91.4414L135.073 92.5917C135.939 93.0136 136.967 93.5126 138.012 93.8941L137.715 94.7072L138.536 95.081C138.609 95.1136 140.188 95.8208 142.814 95.9711C142.814 95.9711 143.448 96 143.797 96C144.146 96 144.773 95.9692 144.773 95.9692C147.381 95.815 148.948 95.1157 149.022 95.081L149.845 94.7053L149.544 93.8903C150.62 93.4972 151.684 92.9789 152.513 92.5743L154.852 91.4395L151.723 90.1352L153.248 90.1545C155.378 90.1545 157.059 89.5379 158.243 88.3202C158.58 87.9715 158.871 87.5804 159.112 87.1507C159.311 87.2316 159.519 87.299 159.735 87.3491C160.018 87.4165 160.321 87.4494 160.639 87.4494C161.327 87.4494 161.892 87.2972 161.908 87.2933L163.766 86.802L162.956 85.0988C162.937 85.0544 162.494 83.9889 163.009 82.4572C163.14 82.0661 163.249 81.6731 163.338 81.2819C163.687 81.3551 164.051 81.3937 164.428 81.3937C166.627 81.3937 167.682 79.8465 167.886 79.5113L168.792 77.9353L167.113 77.2455C165.947 76.7618 165.418 75.6386 165.181 74.6387C167.348 74.4537 168.513 72.6272 168.867 71.5174ZM138.854 56.6471L138.831 56.653L138.85 56.6279L138.854 56.6471Z" fill="white"/>
<path d="M143.774 56.553C141.997 56.5549 140.665 57.1367 140.373 57.8207L143.774 59.1618L147.175 57.8207C146.886 57.1367 145.554 56.5549 143.774 56.553Z" fill="white"/>
<path d="M143.809 92.0515H143.805H143.776H143.743H143.741C142.663 92.0592 141.181 91.8376 140.465 91.6295L139.606 93.955C140.172 94.1574 142.093 94.5427 143.776 94.5427C145.455 94.5427 147.377 94.1555 147.942 93.955L147.084 91.6295C146.367 91.8395 144.886 92.0592 143.809 92.0515Z" fill="white"/>
<path d="M150.316 89.739C149.676 90.1013 148.247 90.6445 147.416 90.897L148.114 92.8179C149.4 92.4671 150.46 92.0568 151.338 91.6175L149.89 91.1358L150.316 89.739Z" fill="white"/>
<path d="M137.234 89.739L137.662 91.1358L136.213 91.6175C137.088 92.0568 138.154 92.4671 139.434 92.8179L140.132 90.897C139.305 90.6445 137.874 90.0993 137.234 89.739Z" fill="white"/>
<path d="M143.774 54.3293C145.114 54.3293 146.429 54.6492 147.439 55.2119C147.532 54.9016 147.661 54.5259 147.836 54.1328L147.455 54.1791L147.054 54.2215L146.884 53.8573L146.373 52.7784L145.442 53.2638L145.08 53.4488L144.79 53.1637L143.778 52.1619L142.768 53.1637L142.479 53.4488L142.116 53.2638L141.179 52.7784L140.674 53.8573L140.501 54.2215L140.1 54.1791L139.718 54.1328C139.894 54.5278 140.021 54.9016 140.115 55.2119C141.127 54.6492 142.438 54.3293 143.774 54.3293Z" fill="white"/>
<path d="M164.231 66.7995C164.404 66.8592 164.582 66.8861 164.757 66.8861C165.515 66.8861 166.247 66.3968 166.5 65.8361C166.5 65.8361 165.11 65.7513 163.616 64.235C163.14 63.7436 162.637 63.5973 162.205 63.5973C161.534 63.5973 161.031 63.9518 161.031 63.9518C162.835 64.9113 163.203 66.4526 164.231 66.7995Z" fill="white"/>
<path d="M122.792 66.8861C122.967 66.8861 123.144 66.8592 123.314 66.7995C124.345 66.4526 124.716 64.9113 126.52 63.9518C126.52 63.9518 126.015 63.5973 125.348 63.5973C124.914 63.5973 124.411 63.7436 123.933 64.235C122.441 65.7513 121.051 65.8361 121.051 65.8361C121.299 66.3968 122.034 66.8861 122.792 66.8861Z" fill="white"/>
<path d="M164.721 73.0626C164.752 73.0645 164.779 73.0645 164.812 73.0645C166.703 73.0645 167.345 71.0394 167.345 71.0394H167.308C166.962 71.0394 164.149 70.9586 162.161 68.4326C160.852 66.7719 159.78 65.3114 157.661 64.7372L157.453 64.7006L157.407 64.4887C157.349 64.165 157.571 63.8625 158.074 63.535C160.997 61.6219 159.013 59.1826 159.013 59.1826C159.013 59.1826 158.178 61.1344 156.31 61.1344C156.266 61.1344 156.217 61.1323 156.171 61.1323C155.959 61.1208 155.755 61.1131 155.548 61.0689L155.203 61.0013C155.203 61.0013 155.735 59.5545 154.451 58.2251C153.484 57.2213 152.306 57.0518 151.625 57.0518C151.282 57.0518 151.064 57.096 151.064 57.096C151.71 57.9399 152.176 59.3387 151.43 60.2018C150.787 60.9435 149.213 60.9802 149.213 62.0861C149.213 62.5543 149.651 63.1015 150.437 63.5928C152.803 65.0821 155.151 67.0569 156.127 69.7043C157.347 73.0067 155.972 75.1974 154.01 76.4536C154.01 76.4536 154.625 77.02 155.518 77.0913C155.699 77.1086 155.876 77.1163 156.042 77.1163C157.925 77.1163 158.899 76.2339 158.899 76.2339C158.899 76.2339 158.739 77.4534 157.758 78.5864C156.854 79.6326 155.666 80.2473 153.856 80.2742C153.856 80.2742 153.798 81.1142 154.6 81.8406C155.113 82.2991 156.298 82.4494 156.298 82.4494C156.298 82.4494 154.079 82.8983 153.834 86.1738C153.701 87.9481 153.248 88.5647 153.248 88.5647H153.289C158.438 88.5647 158.305 84.1507 158.305 84.1507C158.305 84.1507 158.664 85.4569 160.1 85.798C160.274 85.8443 160.459 85.8617 160.636 85.8617C161.099 85.8617 161.5 85.7537 161.5 85.7537C161.5 85.7537 160.748 84.1681 161.494 81.9504C162.113 80.1104 162.013 78.7463 162.013 78.7463C162.013 78.7463 162.707 79.7944 164.426 79.8041H164.444C165.876 79.8041 166.501 78.7194 166.501 78.7194C163.067 77.2955 163.406 72.6985 163.406 72.6985C163.406 72.6985 163.852 73.0298 164.721 73.0626ZM163.688 77.8638C162.292 77.1761 161.409 75.3496 161.195 74.6906C160.964 78.3128 159.194 80.8271 157.125 83.247C156.051 84.5013 155.678 85.7209 155.678 85.7209C155.678 85.7209 155.884 84.3395 156.813 83.2144C158.743 80.8964 160.576 78.0122 160.713 74.6771C160.808 72.3496 160.208 70.4615 159.273 68.9067C159.795 70.5271 159.722 72.5115 157.947 74.363C157.947 74.363 161.48 70.13 156.539 65.7912C154.561 64.1401 152.398 63.1208 151.284 62.3983C155.309 63.7104 157.274 62.2653 157.274 62.2653C155.988 63.3789 154.324 63.3596 153.293 63.1998C153.572 63.3366 153.863 63.4791 154.178 63.6467C157.571 65.4887 160.621 68.5194 161.141 72.7177V72.6849C161.932 76.8061 163.688 77.8638 163.688 77.8638Z" fill="white"/>
<path d="M131.25 82.4494C131.25 82.4494 132.436 82.3011 132.949 81.8406C133.749 81.1142 133.693 80.2742 133.693 80.2742C131.881 80.2491 130.695 79.6326 129.785 78.5884C128.811 77.4554 128.649 76.2358 128.649 76.2358C128.649 76.2358 129.623 77.1183 131.505 77.1183C131.674 77.1183 131.85 77.1105 132.031 77.0932C132.924 77.0219 133.54 76.4554 133.54 76.4554C131.578 75.1992 130.201 73.0067 131.42 69.7043C132.397 67.0589 134.743 65.0821 137.109 63.5928C137.896 63.1015 138.333 62.5561 138.333 62.0861C138.333 60.9802 136.762 60.9435 136.118 60.2018C135.372 59.3387 135.84 57.938 136.484 57.096C136.484 57.096 136.27 57.0518 135.925 57.0518C135.247 57.0518 134.069 57.2213 133.101 58.2251C131.813 59.5545 132.347 61.0013 132.347 61.0013L132.002 61.0689C131.796 61.1131 131.589 61.1208 131.379 61.1323C131.331 61.1323 131.289 61.1344 131.242 61.1344C129.37 61.1344 128.54 59.1845 128.54 59.1845C128.54 59.1845 126.556 61.6238 129.476 63.5369C129.98 63.8645 130.199 64.1669 130.142 64.4906L130.095 64.7026L129.883 64.7392C127.768 65.3134 126.695 66.7738 125.385 68.4346C123.402 70.9567 120.593 71.0394 120.242 71.0394H120.203C120.203 71.0394 120.845 73.0645 122.737 73.0645C122.767 73.0645 122.794 73.0645 122.827 73.0626C123.697 73.0317 124.144 72.6985 124.144 72.6985C124.144 72.6985 124.479 77.2935 121.05 78.7194C121.05 78.7194 121.674 79.8041 123.107 79.8041H123.124C124.846 79.7944 125.538 78.7463 125.538 78.7463C125.538 78.7463 125.438 80.1104 126.054 81.9504C126.8 84.1681 126.052 85.7537 126.052 85.7537C126.052 85.7537 126.454 85.8617 126.914 85.8617C127.094 85.8617 127.277 85.8443 127.448 85.798C128.883 85.4569 129.243 84.1507 129.243 84.1507C129.243 84.1507 129.112 88.5647 134.262 88.5647H134.298C134.298 88.5647 133.847 87.9481 133.716 86.1738C133.469 82.8983 131.25 82.4494 131.25 82.4494ZM130.423 83.247C128.355 80.8271 126.587 78.3128 126.353 74.6906C126.139 75.3477 125.26 77.1761 123.864 77.8638C123.864 77.8638 125.619 76.8061 126.407 72.6849V72.7177C126.93 68.5214 129.978 65.4887 133.373 63.6467C133.683 63.4772 133.978 63.3347 134.256 63.1998C133.224 63.3596 131.561 63.3789 130.275 62.2653C130.275 62.2653 132.239 63.7104 136.263 62.3983C135.148 63.1208 132.987 64.1401 131.009 65.7912C126.066 70.13 129.602 74.363 129.602 74.363C127.824 72.5095 127.753 70.5271 128.275 68.9067C127.338 70.4634 126.741 72.3496 126.837 74.6771C126.972 78.0122 128.805 80.8964 130.732 83.2144C131.663 84.3376 131.873 85.7209 131.873 85.7209C131.873 85.7209 131.495 84.5013 130.423 83.247Z" fill="white"/>
<path d="M139.967 66.3113C140.051 66.4017 140.134 66.5002 140.214 66.5983C140.233 66.6215 140.25 66.6427 140.269 66.6697C140.343 66.7678 140.418 66.872 140.489 66.9779C140.505 66.9991 140.52 67.0242 140.537 67.0491C140.624 67.1802 140.705 67.3151 140.786 67.4539C141.528 68.735 142.718 69.4999 143.772 69.5019C144.829 69.4999 146.014 68.735 146.761 67.4539C146.843 67.3112 146.926 67.1725 147.013 67.0434C147.027 67.0242 147.04 67.0068 147.052 66.9876C147.125 66.8777 147.202 66.7698 147.283 66.6658C147.3 66.6427 147.316 66.6234 147.331 66.6041C147.414 66.502 147.499 66.4018 147.586 66.3093C147.601 66.2939 147.613 66.2804 147.626 66.2689C148.004 65.8816 148.455 65.5868 149.045 65.4231L148.783 65.2709H148.768L147.722 64.664L146.649 64.0493L143.78 65.61L143.772 65.6041L143.767 65.61L140.896 64.0493L139.824 64.662L138.777 65.2689H138.766L138.5 65.4212C139.091 65.5849 139.541 65.8758 139.92 66.2631C139.938 66.2785 139.949 66.2958 139.967 66.3113ZM142.612 66.186H143.826H145.039V67.0183C144.754 66.6697 144.198 66.741 144.198 66.741V67.9413C144.198 67.9413 144.22 68.5309 144.426 68.787H143.826H143.225C143.435 68.5328 143.454 67.9413 143.454 67.9413V66.741C143.454 66.741 142.901 66.6697 142.612 67.0183V66.186Z" fill="white"/>
<path d="M143.526 64.5711V59.6986L140.422 58.6465L141.241 63.3689L143.526 64.5711ZM142.858 60.8951V61.6773L142.708 61.6079C142.7 61.6021 142.481 61.552 142.095 61.2475C141.459 60.7544 141.447 60.2996 141.447 60.2996L142.858 60.8951Z" fill="white"/>
<path d="M146.31 63.3689L147.125 58.6465L144.023 59.6986V64.5711L146.31 63.3689ZM144.69 60.8951L146.101 60.3016C146.101 60.3016 146.09 60.7563 145.452 61.2495C145.068 61.5539 144.846 61.6039 144.839 61.6098L144.688 61.6791V60.8951H144.69Z" fill="white"/>
<path d="M139.136 75.8688C139.439 75.9786 139.805 76.0018 139.992 76.0018C140 75.9786 140.009 75.9496 140.019 75.915C140.036 75.8592 140.052 75.8052 140.064 75.7435C140.116 75.4739 140.135 75.1675 140.139 74.971C140.011 74.8919 139.832 74.7512 139.732 74.5413C139.616 74.2985 139.452 74.1868 139.211 74.1868C138.899 74.1868 138.563 74.3736 138.421 74.4624C138.307 75.1347 138.802 75.7455 139.136 75.8688Z" fill="white"/>
<path d="M146.001 73.2816C145.425 73.9078 144.297 74.9984 144.241 75.0542L144.173 75.1236L140.609 75.0677C140.607 75.4203 140.549 75.7209 140.493 75.9405C140.484 75.9771 140.474 76.0156 140.464 76.0542L144.706 76.8153C145.147 76.507 146.362 75.6206 146.832 75.2739C146.489 74.773 146.456 74.1795 146.533 73.7615C146.31 73.6169 146.138 73.4551 146.001 73.2816Z" fill="white"/>
<path d="M146.485 68.9975C145.664 69.8125 144.875 70.113 144.171 70.1824C144.044 70.1959 143.915 70.2035 143.784 70.2035H143.774H143.766C143.635 70.2035 143.504 70.1959 143.377 70.1824C143.254 70.1708 143.125 70.1516 142.996 70.1227C142.949 70.3057 142.891 70.6891 143.057 71.0513C143.206 71.3808 143.508 71.6255 143.95 71.7874L144.098 71.8451L144.1 72.0051C144.1 72.0532 144.135 73.0898 145.266 73.3768C145.451 73.1861 145.619 73.0147 145.743 72.872C145.511 72.3287 145.633 71.7738 145.968 71.5021C145.953 71.5599 145.806 72.9203 146.898 73.4249L147.077 73.5099L147.023 73.7006C147.005 73.7584 146.641 75.0743 147.962 75.5637L148.195 75.6523L148.091 75.8797C148.068 75.9297 147.549 77.1244 148.77 77.8025H151.416V75.7024C150.476 75.5868 150.077 74.8316 149.974 74.2959C149.537 74.2207 149.197 74.032 148.966 73.7237C148.411 72.9934 148.889 72.3249 148.895 72.2883C148.893 72.2941 148.895 73.0069 149.334 73.4462C149.552 73.6581 149.811 73.822 150.202 73.8586L150.395 73.8759L150.412 74.0725C150.416 74.1148 150.522 75.0782 151.418 75.2304L151.416 70.9415C151.416 70.2768 151.611 69.6083 151.844 68.9917H146.485V68.9975Z" fill="white"/>
<path d="M139.361 70.9614L139.29 73.6936L139.6 73.7398L140.36 71.1195L139.975 70.3141L139.361 70.9614Z" fill="white"/>
<path d="M147.736 83.4915C147.759 83.4915 147.786 83.4954 147.811 83.5011C148.284 83.6361 148.403 85.3392 149.232 85.4914C149.313 85.5088 149.389 85.5126 149.454 85.5126C149.693 85.5126 149.836 85.4104 149.99 85.2294C149.99 85.2294 149.574 84.5743 149.261 84.1332C148.847 83.5551 148.525 82.8556 147.754 82.8556C147.736 82.8556 147.713 82.8556 147.694 82.8577C147.439 82.8711 147.283 82.9944 147.283 82.9944C146.971 82.7979 146.68 82.7304 146.416 82.7304C145.932 82.7304 145.556 82.9521 145.369 82.9521H145.361L143.638 82.7826C143.368 82.7575 143.156 82.4858 143.079 82.3799C143.059 82.3509 143.05 82.3336 143.05 82.3336C143.05 82.2873 143.05 82.2392 143.046 82.1968C142.988 80.7884 141.897 80.1853 141.509 80.1756C141.509 80.1756 141.555 79.9079 141.45 79.8058L141.07 80.2662L139.822 79.64L140.711 80.6786L139.957 81.5243C139.863 81.6208 139.874 81.7518 139.913 81.8057L140.239 82.0928L140.651 81.8423C140.672 81.8269 140.709 81.823 140.755 81.823C140.869 81.823 141.041 81.8518 141.195 81.8518C141.363 81.8518 141.509 81.8152 141.527 81.6572C141.475 82.1794 140.991 83.0869 141.309 83.7998L141.544 84.3374L140.021 84.1176L139.308 85.3219C139.088 85.7227 139.053 86.1561 139.265 86.3912L139.531 86.7246C139.531 86.7246 139.905 86.3276 139.99 86.0675L139.869 85.9345C139.766 85.8228 139.772 85.7227 139.834 85.6013L140.281 84.8594L142.08 85.2834L142.174 85.1215C142.296 84.9192 142.471 84.8575 142.664 84.8575C142.743 84.8575 142.824 84.8671 142.909 84.8807C143.243 84.9462 143.792 85.0348 144.341 85.0348C144.945 85.0348 145.542 84.9269 145.86 84.5705C146.512 85.5358 147.833 85.6899 147.729 86.1792L147.382 87.8324C147.611 87.8227 147.833 87.8073 148.043 87.7784L148.373 86.0578C148.409 85.8709 148.444 85.6185 148.444 85.6185C148.317 85.4895 148.008 85.2159 147.835 84.8845C147.601 84.4374 147.729 84.2044 147.511 83.6225C147.518 83.6264 147.584 83.4915 147.736 83.4915ZM141.008 81.0754C140.919 81.0735 140.856 80.9984 140.859 80.9098C140.867 80.825 140.939 80.7575 141.025 80.7652C141.114 80.7691 141.178 80.8462 141.174 80.931C141.166 81.0157 141.093 81.0813 141.008 81.0754Z" fill="white"/>
<path d="M138.552 85.0557C138.552 85.0557 139.148 84.811 139.201 84.6356L139.122 84.4372C139.067 84.3081 139.074 84.1674 139.182 84.0904L139.826 83.6453L140.902 83.8514C140.902 83.8514 140.707 83.6087 140.727 83.283L139.701 83.0653L138.733 83.6549C138.319 83.9651 138.288 84.4718 138.425 84.7723L138.552 85.0557Z" fill="white"/>
<path d="M146.155 87.8583C146.348 87.8507 146.56 87.8468 146.793 87.8468C146.793 87.8468 147.347 86.2303 147.377 86.1784C147.067 86.0415 146.423 85.7004 146.174 85.5444C146.338 85.7891 146.737 86.0704 146.658 86.2862L146.155 87.8583Z" fill="white"/>
<path d="M151.422 78.2699H136.128V84.0191C136.128 86.3697 137.83 87.8418 140.342 87.8418C142.442 87.8418 142.995 87.9226 143.776 88.6972C144.314 88.1616 144.759 87.9611 145.673 87.886L145.694 87.7975L146.176 86.3081C146.149 86.2753 145.36 85.3795 145.36 85.3795C145.048 85.4836 144.786 85.5009 144.344 85.5009C143.891 85.5009 143.381 85.4488 142.827 85.3448C142.771 85.3314 142.719 85.3274 142.667 85.3274C142.6 85.3274 142.594 85.3332 142.576 85.366L142.48 85.5239L142.305 85.8129L141.975 85.7378L140.508 85.3929L140.307 85.7244L140.338 85.759L140.517 85.9555L140.438 86.2118C140.33 86.547 139.98 86.9381 139.874 87.0461L139.507 87.4391L139.174 87.0172L138.923 86.7031C138.659 86.4084 138.597 85.9555 138.746 85.4816C138.742 85.4854 138.736 85.4873 138.73 85.4873L138.316 85.6588L138.129 85.2541L137.998 84.9672C137.772 84.4624 137.855 83.7244 138.462 83.2793L139.644 82.6127L140.768 82.8343C140.795 82.7263 140.836 82.341 140.868 82.2429C140.847 82.2409 140.826 82.2351 140.805 82.2351L140.157 82.4759L139.532 82.0444C139.532 82.0444 139.288 81.8092 139.509 81.5742L140.114 80.6591L138.582 78.7361L140.938 79.7035L141.094 79.5088L141.412 79.1292L141.773 79.4722C141.875 79.5705 141.933 79.6918 141.961 79.8132C142.611 80.0656 143.774 80.8113 143.876 82.0231L143.511 82.1695V82.1792C143.594 82.2775 143.664 82.318 143.685 82.3217L145.366 82.4875C145.409 82.4798 145.463 82.4605 145.522 82.4432C145.731 82.3719 146.045 82.2698 146.417 82.2698C146.72 82.2698 147.012 82.3391 147.294 82.4702C147.398 82.4317 147.525 82.4027 147.672 82.3931L147.753 82.3912C148.653 82.3912 149.1 83.0635 149.459 83.5993C149.519 83.6916 149.579 83.7803 149.64 83.8669C149.954 84.3102 150.365 84.9594 150.382 84.9865L150.568 85.2755L150.34 85.5394C150.165 85.7416 149.902 85.9787 149.451 85.9787C149.359 85.9787 149.257 85.9691 149.147 85.9478C149.05 85.9305 148.964 85.9015 148.879 85.8669C148.865 85.9555 148.848 86.0615 148.831 86.152L148.536 87.6895C150.3 87.2561 151.42 85.9247 151.42 84.0211L151.422 78.2699Z" fill="#FFDD2D"/>
<path d="M136.128 77.8082H148.021C147.427 77.1955 147.435 76.4191 147.587 75.9142C147.414 75.8313 147.271 75.7311 147.144 75.6233C146.679 75.9662 145.26 76.999 144.89 77.257L144.811 77.3111L140.144 76.4672H140.049C139.938 76.4672 139.774 76.4633 139.594 76.4421C139.544 76.6521 139.363 76.7967 139.155 76.7967C139.132 76.7967 139.105 76.7947 139.08 76.7889C138.958 76.7677 138.852 76.706 138.781 76.6039C138.708 76.5038 138.679 76.3843 138.7 76.2611L138.717 76.1608C138.235 75.8218 137.792 75.0645 137.988 74.2669L138.008 74.1821L138.075 74.1339C138.085 74.1263 138.166 74.0723 138.285 74.0029L137.946 73.9509C137.819 73.9278 137.734 73.8102 137.753 73.6851C137.774 73.5579 137.894 73.4672 138.019 73.4923L138.827 73.6195L138.9 70.7756L140.103 69.504L140.853 71.0821L140.061 73.818L140.774 73.9297C140.899 73.949 140.986 74.0665 140.967 74.1956C140.948 74.3092 140.851 74.3883 140.738 74.3883C140.726 74.3883 140.712 74.3883 140.701 74.3864L140.121 74.292C140.128 74.3092 140.14 74.3188 140.148 74.3381C140.209 74.4653 140.346 74.5578 140.427 74.5963L143.986 74.6522C144.136 74.5058 144.51 74.1397 144.894 73.7524C144.019 73.421 143.701 72.6658 143.647 72.1648C143.157 71.9567 142.82 71.6447 142.633 71.238C142.405 70.7353 142.486 70.2324 142.546 69.9877C142.072 69.8142 141.572 69.4984 141.063 68.9935H135.704C135.933 69.6099 136.128 70.2787 136.128 70.9434V77.8082Z" fill="#FFDD2D"/>
<path d="M141.027 80.7656C140.94 80.7579 140.867 80.8252 140.861 80.91C140.855 80.9986 140.921 81.0737 141.01 81.0756C141.095 81.0834 141.17 81.0179 141.178 80.9312C141.178 80.8464 141.116 80.7675 141.027 80.7656Z" fill="#2C3F4D"/>
<path d="M151.401 91.1898L150.52 90.8525L150.763 89.9432L151.031 88.9509C151.031 88.9509 149.469 89.7968 147.27 90.4327C146.645 90.6118 146.173 90.6927 146.173 90.6927V91.367C146.173 91.367 144.997 91.5713 143.807 91.5713H143.793H143.776H143.753H143.739C142.55 91.5713 141.374 91.367 141.374 91.367V90.6927C141.374 90.6927 140.9 90.6118 140.277 90.4327C138.077 89.7968 136.518 88.9509 136.518 88.9509L136.782 89.9432L137.03 90.8525L136.147 91.1898L135.168 91.5558C136.292 92.0972 137.848 92.8873 139.273 93.2764L138.937 94.1935C138.937 94.1935 140.744 95.0162 143.753 95.024V95.0259H143.763H143.776H143.788H143.795V95.024C146.809 95.0162 148.613 94.1935 148.613 94.1935L148.276 93.2764C149.7 92.8873 151.26 92.0972 152.378 91.5558L151.401 91.1898ZM136.213 91.6175L137.663 91.1359L137.235 89.739C137.873 90.1012 139.305 90.6445 140.134 90.8969L139.435 92.8178C138.154 92.4653 137.088 92.0549 136.213 91.6175ZM143.776 94.5422C142.093 94.5422 140.171 94.155 139.606 93.9547L140.466 91.6291C141.179 91.8372 142.664 92.0587 143.741 92.0509H143.743H143.776H143.805H143.809C144.887 92.0587 146.367 91.8372 147.084 91.6291L147.942 93.9547C147.377 94.1569 145.457 94.5422 143.776 94.5422ZM148.114 92.8178L147.416 90.8969C148.247 90.6445 149.675 90.1012 150.316 89.739L149.889 91.1359L151.337 91.6175C150.46 92.0549 149.4 92.4653 148.114 92.8178Z" fill="#2C3F4D"/>
<path d="M143.774 54.8912C145.567 54.8912 147.002 55.4847 147.794 56.1186C147.794 56.1186 148.029 54.7024 148.833 53.452L147.389 53.6158L146.634 52.0109L145.182 52.7584L143.774 51.3673L142.371 52.7584L140.917 52.0109L140.163 53.6158L138.719 53.452C139.523 54.7024 139.759 56.1186 139.759 56.1186C140.553 55.4847 141.983 54.8912 143.774 54.8912ZM140.098 54.1783L140.499 54.2208L140.672 53.8566L141.177 52.7777L142.114 53.2612L142.477 53.4462L142.766 53.1611L143.776 52.1592L144.789 53.1611L145.078 53.4462L145.44 53.2612L146.371 52.7777L146.882 53.8566L147.052 54.2208L147.453 54.1783L147.835 54.1321C147.659 54.5272 147.53 54.9008 147.437 55.2111C146.427 54.6486 145.112 54.3286 143.773 54.3286C142.438 54.3286 141.125 54.6486 140.111 55.2111C140.017 54.9008 139.89 54.5251 139.714 54.1321L140.098 54.1783Z" fill="#2C3F4D"/>
<path d="M164.81 73.6819C167.129 73.6819 167.904 71.3237 167.937 71.2235L168.195 70.393L167.326 70.42H167.322C167.015 70.42 164.457 70.3526 162.643 68.0482L162.471 67.8344C161.286 66.3278 160.161 64.8962 158.153 64.243C158.21 64.1911 158.293 64.1255 158.407 64.0523C159.473 63.351 160.094 62.4993 160.25 61.511C160.478 60.0235 159.529 58.8386 159.487 58.7905L158.841 57.9928L158.438 58.9389C158.411 58.9985 157.732 60.513 156.306 60.513H156.2C156.101 60.5071 156.009 60.5033 155.916 60.4955C155.966 59.8193 155.843 58.7731 154.895 57.7924C153.755 56.6114 152.355 56.4341 151.623 56.4341C151.231 56.4341 150.971 56.4822 150.944 56.4862L149.969 56.6788L150.57 57.4707C151.043 58.0814 151.471 59.2086 150.963 59.7981C150.802 59.985 150.468 60.1372 150.148 60.2894C149.491 60.5918 148.594 61.0119 148.594 62.0832C148.594 62.7768 149.132 63.5012 150.108 64.1177C152.996 65.9327 154.777 67.8267 155.546 69.9171C156.736 73.1329 155.184 74.967 153.676 75.9324L152.999 76.3677L153.591 76.911C153.67 76.9805 154.395 77.6182 155.465 77.7107C155.668 77.7242 155.862 77.7357 156.044 77.7357C156.73 77.7357 157.314 77.6278 157.788 77.4832C157.657 77.7126 157.497 77.9457 157.295 78.1808C156.433 79.1787 155.373 79.6335 153.848 79.6566L153.281 79.6663L153.236 80.2346C153.231 80.3483 153.188 81.4022 154.187 82.2982C154.339 82.4368 154.524 82.5506 154.717 82.645C154.041 83.2538 153.352 84.3135 153.219 86.1304C153.107 87.6466 152.745 88.2074 152.741 88.213L152.115 89.1687L153.246 89.1842C155.116 89.1842 156.549 88.6678 157.541 87.6466C158.128 87.0416 158.463 86.3596 158.662 85.7547C158.987 86.032 159.408 86.2748 159.955 86.4039C160.163 86.4521 160.391 86.479 160.636 86.479C161.164 86.479 161.606 86.3673 161.656 86.3558L162.379 86.163L162.059 85.4887C162.035 85.4348 161.432 84.0822 162.082 82.1517C162.361 81.3174 162.504 80.5698 162.573 79.988C163.028 80.2249 163.638 80.4215 164.426 80.4234C166.215 80.4234 167.004 79.0882 167.04 79.0324L167.393 78.4196L166.74 78.1499C164.607 77.2656 164.135 74.8899 164.04 73.6029C164.233 73.6395 164.453 73.6742 164.702 73.6819H164.81ZM166.5 78.7182C166.5 78.7182 165.876 79.8031 164.443 79.8031H164.426C162.706 79.7934 162.012 78.7453 162.012 78.7453C162.012 78.7453 162.112 80.1094 161.492 81.9494C160.746 84.167 161.497 85.7528 161.497 85.7528C161.497 85.7528 161.096 85.8606 160.634 85.8606C160.456 85.8606 160.271 85.8433 160.098 85.797C158.662 85.456 158.303 84.1497 158.303 84.1497C158.303 84.1497 158.436 88.5638 153.287 88.5638H153.246C153.246 88.5638 153.699 87.9472 153.834 86.1726C154.079 82.8973 156.298 82.4485 156.298 82.4485C156.298 82.4485 155.114 82.3001 154.601 81.8396C153.799 81.1132 153.855 80.2731 153.855 80.2731C155.668 80.2481 156.853 79.6316 157.757 78.5854C158.737 77.4525 158.899 76.2329 158.899 76.2329C158.899 76.2329 157.925 77.1153 156.042 77.1153C155.876 77.1153 155.698 77.1076 155.517 77.0902C154.626 77.019 154.01 76.4524 154.01 76.4524C155.97 75.1963 157.347 73.0037 156.126 69.7013C155.149 67.056 152.801 65.0792 150.437 63.5899C149.651 63.0986 149.213 62.5534 149.213 62.0832C149.213 60.9773 150.786 60.9426 151.432 60.1988C152.176 59.3357 151.71 57.9351 151.064 57.0931C151.064 57.0931 151.282 57.0487 151.625 57.0487C152.305 57.0487 153.483 57.2202 154.451 58.2221C155.737 59.5515 155.203 60.9985 155.203 60.9985L155.548 61.0659C155.754 61.1102 155.959 61.118 156.171 61.1275C156.217 61.1275 156.263 61.1295 156.309 61.1295C158.178 61.1295 159.013 59.1777 159.013 59.1777C159.013 59.1777 160.998 61.6189 158.075 63.5301C157.572 63.8576 157.351 64.1601 157.408 64.4838L157.455 64.6958L157.663 64.7324C159.782 65.3066 160.854 66.7671 162.163 68.4277C164.15 70.9537 166.963 71.0347 167.31 71.0347H167.347C167.347 71.0347 166.705 73.0596 164.813 73.0596C164.783 73.0596 164.756 73.0596 164.723 73.0577C163.853 73.0268 163.408 72.6936 163.408 72.6936C163.408 72.6936 163.067 77.2925 166.5 78.7182Z" fill="#2C3F4D"/>
<path d="M160.736 64.498C161.601 64.9584 162.104 65.575 162.546 66.1221C162.98 66.6558 163.392 67.1703 164.036 67.3842C164.265 67.4632 164.508 67.4998 164.755 67.4998C165.723 67.4998 166.695 66.9083 167.063 66.0895L167.433 65.2686L166.537 65.2147C166.494 65.2128 165.341 65.1087 164.057 63.7966C163.529 63.2592 162.891 62.9758 162.203 62.9758C161.362 62.9758 160.739 63.3959 160.67 63.4383L159.845 64.0183L160.736 64.498ZM162.205 63.5964C162.636 63.5964 163.14 63.7427 163.616 64.234C165.11 65.7504 166.5 65.8351 166.5 65.8351C166.247 66.3938 165.515 66.8852 164.757 66.8852C164.582 66.8852 164.406 66.8582 164.231 66.7985C163.203 66.4517 162.835 64.9103 161.029 63.9507C161.029 63.9507 161.534 63.5964 162.205 63.5964Z" fill="#2C3F4D"/>
<path d="M161.14 72.6842V72.7151C160.62 68.5188 157.57 65.4881 154.177 63.6442C153.862 63.4765 153.573 63.334 153.292 63.1972C154.325 63.3571 155.989 63.3764 157.273 62.2627C157.273 62.2627 155.308 63.7078 151.283 62.3957C152.397 63.1182 154.562 64.1375 156.538 65.7886C161.48 70.1274 157.944 74.3604 157.944 74.3604C159.719 72.509 159.793 70.5245 159.27 68.9041C160.205 70.4589 160.803 72.347 160.71 74.6745C160.573 78.0096 158.74 80.8939 156.81 83.2118C155.883 84.3369 155.675 85.7184 155.675 85.7184C155.675 85.7184 156.049 84.4988 157.122 83.2444C159.191 80.8246 160.959 78.3102 161.19 74.688C161.404 75.3451 162.285 77.1735 163.683 77.8613C163.687 77.8632 161.931 76.8055 161.14 72.6842Z" fill="#2C3F4D"/>
<path d="M134.807 88.2121C134.805 88.2064 134.447 87.6458 134.331 86.1294C134.196 84.3126 133.51 83.2529 132.831 82.644C133.028 82.5516 133.209 82.4379 133.361 82.2973C134.358 81.4013 134.315 80.3475 134.31 80.2338L134.271 79.6654L133.7 79.6558C132.179 79.6307 131.117 79.176 130.255 78.1798C130.055 77.9449 129.893 77.7117 129.762 77.4825C130.236 77.6269 130.816 77.7349 131.505 77.7349C131.69 77.7349 131.881 77.7232 132.083 77.7098C133.153 77.6173 133.878 76.9813 133.959 76.9102L134.551 76.367L133.874 75.9314C132.361 74.9642 130.814 73.13 132.002 69.9163C132.771 67.8258 134.551 65.9318 137.443 64.1168C138.418 63.5002 138.952 62.776 138.952 62.0823C138.952 61.011 138.057 60.5891 137.4 60.2885C137.08 60.1363 136.747 59.9841 136.585 59.7973C136.076 59.2095 136.506 58.0806 136.976 57.4697L137.581 56.6779L136.602 56.4852C136.573 56.4814 136.317 56.4332 135.923 56.4332C135.191 56.4332 133.795 56.6105 132.654 57.7915C131.703 58.7742 131.578 59.8204 131.626 60.4947C131.534 60.5024 131.441 60.5063 131.345 60.512H131.241C129.81 60.512 129.133 58.9977 129.106 58.9379L128.703 57.9919L128.052 58.7895C128.015 58.8378 127.063 60.0246 127.294 61.51C127.448 62.4983 128.069 63.3499 129.135 64.0514C129.251 64.1246 129.332 64.1901 129.39 64.2422C127.383 64.8952 126.261 66.3287 125.075 67.8354L124.903 68.0493C123.091 70.3536 120.527 70.4212 120.221 70.4212L119.347 70.3941L119.613 71.2244C119.644 71.3246 120.417 73.683 122.738 73.683L122.85 73.6792C123.095 73.6714 123.315 73.6387 123.512 73.6001C123.415 74.8852 122.943 77.2609 120.809 78.1472L120.157 78.4169L120.51 79.0295C120.545 79.0854 121.335 80.4207 123.128 80.4207C123.911 80.4187 124.52 80.2221 124.977 79.9852C125.046 80.567 125.189 81.3146 125.468 82.1489C126.118 84.0794 125.513 85.4319 125.49 85.4859L125.17 86.1604L125.895 86.353C125.943 86.3645 126.388 86.4761 126.914 86.4761C127.161 86.4761 127.389 86.4492 127.593 86.401C128.142 86.2719 128.567 86.0293 128.888 85.7518C129.085 86.3567 129.422 87.0389 130.007 87.6439C131.001 88.665 132.432 89.1812 134.302 89.1812L135.436 89.166L134.807 88.2121ZM134.259 88.5648C129.11 88.5648 129.241 84.1507 129.241 84.1507C129.241 84.1507 128.883 85.457 127.446 85.7981C127.275 85.8443 127.092 85.8617 126.912 85.8617C126.45 85.8617 126.051 85.7536 126.051 85.7536C126.051 85.7536 126.799 84.1681 126.052 81.9505C125.436 80.1104 125.536 78.7464 125.536 78.7464C125.536 78.7464 124.844 79.7944 123.122 79.804H123.105C121.672 79.804 121.048 78.7193 121.048 78.7193C124.479 77.2955 124.142 72.6985 124.142 72.6985C124.142 72.6985 123.697 73.0297 122.825 73.0626C122.794 73.0644 122.766 73.0645 122.735 73.0645C120.841 73.0645 120.201 71.0396 120.201 71.0396H120.24C120.589 71.0396 123.398 70.9586 125.385 68.4326C126.695 66.7718 127.768 65.3133 129.883 64.7374L130.095 64.7008L130.142 64.4888C130.199 64.1651 129.98 63.8626 129.476 63.535C126.554 61.6217 128.54 59.1826 128.54 59.1826C128.54 59.1826 129.37 61.1325 131.242 61.1325C131.289 61.1325 131.331 61.1305 131.379 61.1305C131.589 61.1189 131.798 61.1112 132.002 61.067L132.347 60.9995C132.347 60.9995 131.813 59.5525 133.101 58.2231C134.069 57.2193 135.247 57.0498 135.925 57.0498C136.27 57.0498 136.484 57.094 136.484 57.094C135.84 57.9379 135.374 59.3368 136.118 60.2C136.762 60.9417 138.333 60.9783 138.333 62.0842C138.333 62.5524 137.896 63.0997 137.109 63.5909C134.743 65.0803 132.395 67.057 131.42 69.7024C130.201 73.0048 131.576 75.1954 133.54 76.4536C133.54 76.4536 132.924 77.02 132.031 77.0914C131.85 77.1087 131.674 77.1163 131.505 77.1163C129.623 77.1163 128.649 76.2338 128.649 76.2338C128.649 76.2338 128.811 77.4536 129.785 78.5865C130.695 79.6326 131.881 80.2491 133.693 80.2743C133.693 80.2743 133.751 81.1143 132.949 81.8405C132.434 82.299 131.25 82.4494 131.25 82.4494C131.25 82.4494 133.471 82.8983 133.714 86.1737C133.847 87.9481 134.296 88.5648 134.296 88.5648H134.259Z" fill="#2C3F4D"/>
<path d="M122.791 67.5025C123.04 67.5025 123.283 67.4658 123.512 67.3867C124.16 67.1729 124.571 66.6585 125.004 66.1248C125.448 65.5776 125.947 64.9611 126.813 64.5006L127.704 64.0228L126.876 63.4428C126.807 63.3985 126.186 62.9805 125.348 62.9805C124.658 62.9805 124.017 63.2617 123.491 63.8011C122.207 65.1113 121.056 65.2172 121.014 65.2192L120.117 65.2712L120.486 66.0939C120.856 66.9089 121.825 67.5025 122.791 67.5025ZM123.933 64.2367C124.411 63.7452 124.914 63.5989 125.348 63.5989C126.015 63.5989 126.52 63.9533 126.52 63.9533C124.715 64.9148 124.345 66.4543 123.314 66.8011C123.144 66.8608 122.967 66.8878 122.791 66.8878C122.034 66.8878 121.301 66.3984 121.05 65.8377C121.05 65.8358 122.438 65.7509 123.933 64.2367Z" fill="#2C3F4D"/>
<path d="M126.838 74.6765C126.741 72.349 127.339 70.4608 128.276 68.906C127.753 70.5263 127.825 72.5109 129.602 74.3625C129.602 74.3625 126.067 70.1295 131.01 65.7905C132.988 64.1393 135.151 63.1201 136.263 62.3976C132.24 63.7096 130.275 62.2646 130.275 62.2646C131.559 63.3783 133.223 63.3591 134.256 63.1973C133.977 63.334 133.684 63.4766 133.373 63.6442C129.976 65.488 126.928 68.5187 126.406 72.7151V72.6824C125.617 76.8036 123.863 77.8613 123.863 77.8613C125.259 77.1734 126.138 75.347 126.352 74.6881C126.585 78.3103 128.353 80.8246 130.422 83.2446C131.496 84.4987 131.873 85.7184 131.873 85.7184C131.873 85.7184 131.663 84.3369 130.732 83.2117C128.806 80.8978 126.973 78.0116 126.838 74.6765Z" fill="#2C3F4D"/>
<path d="M142.611 66.1868V67.0191C142.899 66.6703 143.454 66.7417 143.454 66.7417V67.9421C143.454 67.9421 143.435 68.5316 143.225 68.7878H143.826H144.426C144.219 68.5335 144.198 67.9421 144.198 67.9421V66.7417C144.198 66.7417 144.753 66.6703 145.039 67.0191V66.1868H143.826H142.611Z" fill="#2C3F4D"/>
<path d="M142.095 61.25C142.479 61.5546 142.701 61.6046 142.708 61.6104L142.859 61.6797V60.8955L141.448 60.3021C141.448 60.304 141.461 60.7568 142.095 61.25Z" fill="#2C3F4D"/>
<path d="M145.452 61.25C146.09 60.7568 146.101 60.3021 146.101 60.3021L144.69 60.8955V61.6797L144.839 61.6104C144.848 61.6046 145.068 61.5546 145.452 61.25Z" fill="#2C3F4D"/>
<path d="M147.994 58.0568C147.994 56.868 145.991 55.7987 143.78 55.7987H143.778H143.772H143.766C141.555 55.7987 139.552 56.868 139.552 58.0568L139.596 58.3496L140.479 63.4149L139.592 63.9293L137.298 65.2684H137.306C137.306 65.2684 136.789 65.5323 136.55 65.6961C135.677 66.3031 135.492 67.1874 135.999 67.5535C136.124 66.8329 136.695 66.0776 137.763 66.0776C138.532 66.0776 139.118 66.4745 139.592 67.0699C139.714 67.2201 139.829 67.3801 139.937 67.5535C140.07 67.7711 140.203 67.962 140.337 68.1469H134.428C134.861 69.0197 135.274 69.9446 135.274 70.9483V84.0191C135.274 87.1827 137.709 88.6932 140.342 88.6932C142.378 88.6932 142.652 88.6007 143.776 89.7182C144.894 88.5988 145.168 88.6932 147.206 88.6932C149.841 88.6932 152.272 87.1827 152.272 84.0191V70.9483C152.272 69.9446 152.685 69.0197 153.12 68.1469H147.209C147.341 67.9638 147.474 67.7711 147.606 67.5535C147.716 67.3801 147.83 67.2201 147.95 67.0699C148.428 66.4726 149.012 66.0776 149.781 66.0776C150.849 66.0776 151.418 66.831 151.545 67.5535C152.052 67.1874 151.869 66.3031 150.99 65.6961C150.755 65.5323 150.238 65.2684 150.238 65.2684H150.246L147.952 63.9293L147.069 63.4149L147.952 58.3496L147.994 58.0568ZM140.421 58.6464L143.525 59.6983V64.5709L141.241 63.3668L140.421 58.6464ZM141.063 68.9965C141.572 69.5032 142.072 69.8173 142.546 69.9907C142.484 70.2354 142.403 70.7403 142.633 71.243C142.82 71.6476 143.159 71.9599 143.647 72.1679C143.701 72.6689 144.017 73.4222 144.894 73.7556C144.51 74.1428 144.136 74.5069 143.984 74.6553L140.427 74.5994C140.346 74.5589 140.209 74.4684 140.148 74.3393C140.14 74.322 140.128 74.3123 140.123 74.293L140.703 74.3874C140.716 74.3893 140.728 74.3893 140.739 74.3893C140.851 74.3893 140.95 74.3123 140.969 74.1967C140.988 74.0676 140.901 73.95 140.776 73.9308L140.063 73.819L140.855 71.085L140.105 69.5071L138.902 70.7788L138.829 73.6225L138.021 73.4954C137.896 73.4703 137.776 73.5629 137.755 73.688C137.736 73.8134 137.821 73.9308 137.948 73.954L138.287 74.0059C138.166 74.0754 138.087 74.1292 138.077 74.1369L138.008 74.1851L137.988 74.27C137.792 75.0676 138.237 75.8248 138.717 76.1639L138.7 76.264C138.68 76.3875 138.707 76.5068 138.781 76.607C138.85 76.7092 138.958 76.7708 139.078 76.792C139.103 76.7958 139.13 76.7977 139.153 76.7977C139.361 76.7977 139.542 76.6532 139.594 76.4433C139.774 76.4644 139.937 76.4683 140.049 76.4683H140.144L144.811 77.3102L144.89 77.2583C145.262 76.9981 146.679 75.9655 147.144 75.6243C147.271 75.7343 147.414 75.8345 147.587 75.9172C147.437 76.422 147.427 77.1985 148.023 77.8113H136.128V70.9503C136.128 70.2856 135.933 69.617 135.704 69.0004H141.063V68.9965ZM146.832 75.2738C146.359 75.6206 145.145 76.5068 144.705 76.8151L140.464 76.0541C140.473 76.0155 140.483 75.9789 140.493 75.9404C140.549 75.7207 140.605 75.4201 140.608 75.0676L144.173 75.1254L144.24 75.056C144.294 75.0021 145.424 73.9115 146.001 73.2834C146.138 73.4549 146.309 73.6187 146.533 73.7632C146.456 74.1794 146.488 74.7728 146.832 75.2738ZM139.731 74.5396C139.831 74.7497 140.013 74.8904 140.138 74.9693C140.134 75.1658 140.115 75.4722 140.063 75.7419C140.051 75.8016 140.036 75.8575 140.018 75.9134C140.009 75.9482 139.999 75.977 139.991 76.0001C139.804 76.0001 139.436 75.977 139.135 75.8672C138.802 75.7438 138.305 75.1331 138.42 74.4607C138.565 74.372 138.898 74.1851 139.211 74.1851C139.452 74.1832 139.615 74.2969 139.731 74.5396ZM139.29 73.6939L139.361 70.9637L139.974 70.3144L140.36 71.1198L139.6 73.7401L139.29 73.6939ZM146.793 87.8474C146.562 87.8474 146.348 87.8512 146.155 87.859L146.66 86.2887C146.739 86.0709 146.34 85.7916 146.176 85.5469C146.425 85.703 147.069 86.044 147.379 86.1809C147.346 86.2309 146.793 87.8474 146.793 87.8474ZM148.378 86.0633L148.048 87.7819C147.838 87.8108 147.614 87.8261 147.385 87.8358L147.732 86.1828C147.836 85.6913 146.515 85.5392 145.864 84.5739C145.546 84.9323 144.946 85.0383 144.345 85.0383C143.795 85.0383 143.246 84.9496 142.912 84.8841C142.827 84.8707 142.746 84.861 142.667 84.861C142.475 84.861 142.299 84.9208 142.178 85.125L142.081 85.2868L140.283 84.863L139.835 85.6028C139.772 85.7223 139.768 85.8245 139.87 85.936L139.991 86.0691C139.909 86.3311 139.535 86.7261 139.535 86.7261L139.267 86.3927C139.054 86.1558 139.089 85.7242 139.311 85.3234L140.024 84.1192L141.547 84.3389L141.31 83.7994C140.992 83.0865 141.476 82.1791 141.528 81.6569C141.511 81.8149 141.366 81.8496 141.196 81.8496C141.042 81.8496 140.87 81.8206 140.757 81.8206C140.712 81.8206 140.674 81.8245 140.653 81.8399L140.24 82.0904L139.914 81.8033C139.876 81.7474 139.862 81.6183 139.959 81.522L140.712 80.6781L139.822 79.6397L141.069 80.2658L141.449 79.8054C141.553 79.9075 141.509 80.1753 141.509 80.1753C141.898 80.1849 142.989 80.788 143.047 82.1945C143.051 82.2367 143.051 82.285 143.051 82.3311C143.051 82.3311 143.061 82.3486 143.08 82.3774C143.157 82.4835 143.369 82.7551 143.639 82.7801L145.363 82.9497H145.37C145.559 82.9497 145.935 82.7282 146.417 82.7282C146.679 82.7282 146.972 82.7956 147.285 82.9921C147.285 82.9921 147.441 82.8688 147.695 82.8553C147.714 82.8533 147.736 82.8533 147.755 82.8533C148.528 82.8533 148.848 83.5509 149.263 84.1308C149.575 84.572 149.991 85.2271 149.991 85.2271C149.837 85.4101 149.694 85.5103 149.455 85.5103C149.39 85.5103 149.315 85.5045 149.234 85.4891C148.405 85.3369 148.285 83.6337 147.813 83.4988C147.788 83.4911 147.761 83.4892 147.738 83.4892C147.585 83.4892 147.518 83.6241 147.518 83.6241C147.734 84.2039 147.608 84.4391 147.84 84.8861C148.013 85.2175 148.322 85.4911 148.449 85.6201C148.449 85.624 148.414 85.8745 148.378 86.0633ZM139.122 84.4371L139.201 84.6356C139.149 84.809 138.551 85.0556 138.551 85.0556L138.422 84.7742C138.285 84.4737 138.314 83.967 138.731 83.6568L139.698 83.0672L140.724 83.2849C140.705 83.6105 140.899 83.8534 140.899 83.8534L139.824 83.6472L139.18 84.0923C139.072 84.1674 139.064 84.3081 139.122 84.4371ZM148.54 87.6876L148.835 86.1499C148.85 86.0594 148.869 85.9535 148.883 85.8648C148.966 85.8996 149.054 85.9284 149.151 85.9458C149.261 85.967 149.363 85.9765 149.455 85.9765C149.907 85.9765 150.169 85.7395 150.344 85.5372L150.572 85.2733L150.387 84.9844C150.369 84.9554 149.961 84.3081 149.644 83.8649C149.583 83.7782 149.523 83.6915 149.463 83.5971C149.105 83.0614 148.655 82.3891 147.755 82.3891L147.674 82.391C147.526 82.4006 147.398 82.4295 147.296 82.468C147.013 82.3351 146.722 82.2677 146.419 82.2677C146.047 82.2677 145.733 82.3699 145.524 82.4411C145.465 82.4584 145.411 82.4777 145.368 82.4854L143.685 82.3196C143.664 82.3159 143.595 82.2755 143.512 82.1752V82.1675L143.876 82.021C143.774 80.8092 142.609 80.0635 141.96 79.8111C141.931 79.6897 141.873 79.5683 141.771 79.4701L141.408 79.1271L141.09 79.5087L140.934 79.7033L138.578 78.736L140.111 80.6589L139.506 81.5741C139.284 81.8091 139.529 82.0442 139.529 82.0442L140.153 82.4738L140.801 82.233C140.824 82.233 140.844 82.2389 140.865 82.2407C140.834 82.3389 140.793 82.7243 140.766 82.8322L139.642 82.6106L138.461 83.2773C137.853 83.7224 137.77 84.4603 137.996 84.9651L138.127 85.252L138.314 85.6568L138.727 85.4852C138.732 85.4833 138.738 85.4814 138.742 85.4776C138.594 85.9515 138.654 86.4023 138.919 86.6991L139.17 87.0151L139.504 87.437L139.87 87.0439C139.978 86.936 140.327 86.545 140.435 86.2097L140.514 85.9534L140.335 85.7569L140.306 85.7223L140.506 85.3908L141.973 85.7357L142.303 85.8109L142.478 85.5218L142.575 85.3638C142.592 85.3311 142.598 85.3253 142.665 85.3253C142.717 85.3253 142.769 85.3311 142.825 85.3427C143.379 85.4467 143.889 85.4988 144.343 85.4988C144.782 85.4988 145.044 85.4814 145.359 85.3774C145.359 85.3774 146.147 86.2713 146.174 86.306L145.692 87.7934L145.671 87.884C144.757 87.9571 144.312 88.1576 143.774 88.6951C142.993 87.9205 142.44 87.8397 140.34 87.8397C137.828 87.8397 136.126 86.3677 136.126 84.0171V78.2698H151.418L151.422 84.0171C151.424 85.9245 150.304 87.2539 148.54 87.6876ZM151.846 68.9965C151.613 69.6131 151.418 70.2817 151.418 70.9464L151.42 75.2353C150.523 75.085 150.417 74.1196 150.414 74.0773L150.396 73.8808L150.203 73.8634C149.814 73.8268 149.556 73.661 149.338 73.4492C148.898 73.0099 148.896 72.297 148.898 72.2912C148.893 72.3278 148.414 72.9963 148.97 73.7266C149.203 74.0349 149.54 74.2237 149.978 74.2989C150.08 74.8345 150.479 75.5897 151.42 75.7053V77.8054H148.775C147.554 77.1273 148.071 75.9326 148.096 75.8826L148.2 75.6552L147.967 75.5666C146.646 75.0772 147.009 73.7593 147.028 73.7035L147.082 73.5107L146.903 73.426C145.812 72.9212 145.96 71.5591 145.974 71.5032C145.638 71.7748 145.517 72.3297 145.748 72.8731C145.623 73.0157 145.455 73.189 145.272 73.3778C144.142 73.0909 144.108 72.0523 144.108 72.0042L144.105 71.8442L143.957 71.7864C143.516 71.6226 143.213 71.378 143.064 71.0484C142.897 70.6844 142.956 70.3029 143.003 70.1198C143.132 70.1487 143.261 70.17 143.385 70.1796C143.512 70.193 143.643 70.2008 143.774 70.2008H143.782H143.791C143.922 70.2008 144.052 70.193 144.179 70.1796C144.882 70.1102 145.671 69.8077 146.492 68.9946H151.846V68.9965ZM147.724 64.6614L148.769 65.2684H148.785L149.047 65.4206C148.457 65.5844 148.006 65.8791 147.628 66.2664C147.614 66.278 147.601 66.2934 147.587 66.3069C147.501 66.3993 147.414 66.4996 147.333 66.6017C147.317 66.621 147.302 66.6422 147.285 66.6634C147.204 66.7673 147.129 66.8734 147.055 66.9851C147.044 67.0044 147.03 67.0237 147.017 67.0409C146.93 67.17 146.847 67.3088 146.764 67.4513C146.02 68.7326 144.832 69.4975 143.776 69.4994C142.721 69.4975 141.534 68.7326 140.79 67.4513C140.709 67.3125 140.628 67.1778 140.541 67.0467C140.523 67.0217 140.508 66.9967 140.493 66.9754C140.419 66.8695 140.346 66.7654 140.271 66.6673C140.252 66.6403 140.234 66.619 140.215 66.5959C140.134 66.4976 140.051 66.3993 139.968 66.3088C139.951 66.2954 139.939 66.278 139.922 66.2626C139.542 65.8753 139.093 65.5824 138.501 65.4206L138.767 65.2684H138.779L139.824 64.6614L140.897 64.0469L143.766 65.6075L143.772 65.6017L143.78 65.6075L146.648 64.0469L147.724 64.6614ZM146.309 63.3686L144.023 64.5728V59.6983L147.125 58.6464L146.309 63.3686ZM143.774 59.1627L140.373 57.8198C140.662 57.1359 141.996 56.5539 143.774 56.552C145.553 56.5539 146.887 57.1359 147.175 57.8198L143.774 59.1627Z" fill="#2C3F4D"/>
<path d="M185.888 79.5538V71.839H190.416V69.0317H178.063V71.839H182.591V79.5538H185.888ZM194.922 75.1548V69.0317H191.735V79.5538H194.549L200.044 73.4306V79.5538H203.231V69.0317H200.417L194.922 75.1548ZM213.953 75.6412V79.5538H217.141V69.0317H213.953V72.8779H208.831V69.0317H205.644V79.5538H208.831V75.6412H213.953ZM226.016 79.5538C226.74 79.5538 227.4 79.4876 228.016 79.3107C229.665 78.8465 230.742 77.498 230.742 75.6632C230.742 73.917 229.819 72.7012 228.347 72.1485C227.641 71.8833 226.807 71.8611 226.016 71.8611H222.74V69.0317H219.554V79.5538H226.016ZM225.466 74.337C225.906 74.337 226.324 74.337 226.697 74.4696C227.225 74.6464 227.533 75.0885 227.533 75.6191C227.533 76.1717 227.225 76.6359 226.719 76.8569C226.368 77.0117 226.016 77.0117 225.466 77.0117H222.74V74.337H225.466ZM236.456 75.5749L240.259 79.5538H244.5L239.203 74.0716L244.303 69.0317H240.303L236.456 72.9885H235.577V69.0317H232.391V79.5538H235.577V75.5749H236.456ZM251.058 68.7444C246.772 68.7444 244.201 71.1758 244.201 74.3148C244.201 77.4539 246.772 79.8855 251.058 79.8855C255.323 79.8855 257.895 77.4539 257.895 74.3148C257.895 71.1758 255.323 68.7444 251.058 68.7444ZM251.058 77.3212C248.926 77.3212 247.565 76.0391 247.565 74.3148C247.565 72.5907 248.926 71.3306 251.058 71.3306C253.168 71.3306 254.554 72.5907 254.554 74.3148C254.554 76.0391 253.168 77.3212 251.058 77.3212ZM268.509 68.4348H265.322V69.4958C261.322 69.5842 258.925 71.2863 258.925 74.2927C258.925 77.299 261.322 78.8686 265.322 78.957V80.0181H268.509V78.957C272.531 78.8686 274.927 77.299 274.927 74.2927C274.927 71.2863 272.531 69.5842 268.509 69.4958V68.4348ZM265.322 76.7023C263.124 76.6138 262.156 75.7075 262.156 74.2927C262.156 72.8779 263.124 71.8611 265.322 71.7728V76.7023ZM268.509 71.7728C270.73 71.8611 271.675 72.8779 271.675 74.2927C271.675 75.7075 270.73 76.6138 268.509 76.7023V71.7728ZM285.53 68.4348H282.343V69.4958C278.343 69.5842 275.948 71.2863 275.948 74.2927C275.948 77.299 278.343 78.8686 282.343 78.957V80.0181H285.53V78.957C289.554 78.8686 291.949 77.299 291.949 74.2927C291.949 71.2863 289.554 69.5842 285.53 69.4958V68.4348ZM282.343 76.7023C280.145 76.6138 279.179 75.7075 279.179 74.2927C279.179 72.8779 280.145 71.8611 282.343 71.7728V76.7023ZM285.53 71.7728C287.75 71.8611 288.696 72.8779 288.696 74.2927C288.696 75.7075 287.75 76.6138 285.53 76.7023V71.7728Z" fill="#2C3F4D"/>
</svg>
